<svg id="Layer_1" data-name="Layer 1" xmlns="http://www.w3.org/2000/svg" viewBox="0 0 16 16"><defs><style>.cls-1{fill:#fff;}.cls-2{fill:#262626;opacity:0.75;}.cls-3{fill:#ccc;}.cls-4{fill:#595a5a;}</style></defs><title>GeoAnalytics</title><path class="cls-1" d="M8.07,1H7.93A6.93,6.93,0,0,0,1,7.93v.14A6.93,6.93,0,0,0,7.93,15h.14A6.93,6.93,0,0,0,15,8.07V7.93A6.93,6.93,0,0,0,8.07,1Zm2.5,7.846-1.6.958-1.6.958a1.012,1.012,0,0,1-1.533-.868V6.062a1.012,1.012,0,0,1,1.533-.868l1.6.958,1.6.958a1.013,1.013,0,0,1,0,1.735Z"/><path class="cls-2" d="M15.376,4.843A7.916,7.916,0,0,0,8.07,0H7.93A7.959,7.959,0,0,0,6.352.157,7.925,7.925,0,0,0,3.5,1.35,7.938,7.938,0,0,0,.624,4.843,7.869,7.869,0,0,0,.157,6.352,7.958,7.958,0,0,0,0,7.93v.14A7.958,7.958,0,0,0,.157,9.648,7.925,7.925,0,0,0,1.35,12.5a7.938,7.938,0,0,0,3.493,2.878,7.869,7.869,0,0,0,1.509.467A7.959,7.959,0,0,0,7.93,16h.14a7.959,7.959,0,0,0,1.578-.157A7.925,7.925,0,0,0,12.5,14.65a7.938,7.938,0,0,0,2.878-3.493,7.869,7.869,0,0,0,.467-1.509A7.958,7.958,0,0,0,16,8.07V7.93a7.958,7.958,0,0,0-.157-1.578A7.869,7.869,0,0,0,15.376,4.843ZM15,8.07A6.93,6.93,0,0,1,8.07,15H7.93A6.93,6.93,0,0,1,1,8.07V7.93A6.93,6.93,0,0,1,7.93,1h.14A6.93,6.93,0,0,1,15,7.93v.14Z"/><path class="cls-3" d="M10.085,7.925l-1.6-.958-1.6-.958L6.876,6,6.86,6a.063.063,0,0,0-.043.017.061.061,0,0,0-.019.045V9.894a.061.061,0,0,0,.019.045.063.063,0,0,0,.043.017l.016,0,.016-.007,1.6-.958,1.6-.958a.062.062,0,0,0,0-.106Z"/><path class="cls-4" d="M10.574,7.11l-1.6-.958-1.6-.958a1.012,1.012,0,0,0-1.533.868V9.894a1.012,1.012,0,0,0,1.533.868l1.6-.958,1.6-.958a1.013,1.013,0,0,0,0-1.735ZM6.86,9.956a.063.063,0,0,1-.043-.017A.061.061,0,0,1,6.8,9.894V6.062a.061.061,0,0,1,.019-.045A.063.063,0,0,1,6.86,6l.016,0,.016.007,1.6.958,1.6.958a.062.062,0,0,1,0,.106l-1.6.958-1.6.958-.016.007Z"/></svg>