<svg id="Layer_1" data-name="Layer 1" xmlns="http://www.w3.org/2000/svg" viewBox="0 0 16 16"><defs><style>.cls-1{fill:#fff;}.cls-2{fill:none;}.cls-3{fill:#ccc;}.cls-4{fill:#262626;opacity:0.75;}</style></defs><title>GeoAnalytics</title><path class="cls-1" d="M15,8.01a7,7,0,1,1-2.05-4.95A6.978,6.978,0,0,1,15,8.01Z"/><path class="cls-2" d="M10.875,13.518a.159.159,0,0,1,.046-.11.283.283,0,0,1,.11-.069.423.423,0,0,0,.131-.068,1.035,1.035,0,0,0,.119-.1l.09-.09.09-.09c.027-.012.053-.057.078-.121s.051-.148.078-.238a.746.746,0,0,1,.087-.238.577.577,0,0,1,.163-.191,1.036,1.036,0,0,1,.186-.122.443.443,0,0,1,.174-.058.329.329,0,0,0,.128-.057.118.118,0,0,0,.052-.092.478.478,0,0,1,.015-.1.66.66,0,0,1,.032-.1c.012-.027.031-.059.048-.09a.209.209,0,0,0,.03-.09.1.1,0,0,1,.1-.1.152.152,0,0,0,.095-.084.324.324,0,0,0,.03-.142.624.624,0,0,1,.036-.186.58.58,0,0,1,.089-.174,1.388,1.388,0,0,1,.141-.143.541.541,0,0,1,.117-.084l-.012-.1-.012-.1a.18.18,0,0,0-.051-.108.117.117,0,0,0-.081-.028.37.37,0,0,0-.1.017.35.35,0,0,1-.076.017h-.078a.509.509,0,0,0-.126-.2.267.267,0,0,0-.179-.082.993.993,0,0,1-.158-.051.4.4,0,0,1-.123-.074.287.287,0,0,0-.138-.06.948.948,0,0,0-.19-.019l-.027.039-.027.039-.023.051-.023.051a.39.39,0,0,1-.048-.165,1.854,1.854,0,0,1-.007-.194.585.585,0,0,0-.019-.158.207.207,0,0,0-.083-.123.357.357,0,0,0-.117-.092.628.628,0,0,0-.164-.057c-.035-.012-.086-.031-.131-.048a.537.537,0,0,0-.1-.03.173.173,0,0,1-.071-.057.154.154,0,0,1-.03-.092.322.322,0,0,0-.068-.09,1.144,1.144,0,0,0-.1-.09A.672.672,0,0,0,10.6,8.7a.836.836,0,0,0-.206-.03.992.992,0,0,1-.2-.019.286.286,0,0,1-.139-.06.4.4,0,0,0-.1-.071.25.25,0,0,0-.1-.03.6.6,0,0,0-.122.013.61.61,0,0,0-.128.042.432.432,0,0,0-.11.047c-.028.018-.046.035-.046.047A.307.307,0,0,1,9.4,8.69a.322.322,0,0,1-.1.055,1.173,1.173,0,0,0-.117.012,1.207,1.207,0,0,1-.141.012.236.236,0,0,0-.107.03.408.408,0,0,0-.1.071l.078.012L9,8.893A.191.191,0,0,1,9.146,9a.342.342,0,0,1,.034.152v.07a.791.791,0,0,0-.027.174c0,.061,0,.119,0,.162a.211.211,0,0,1-.03.11.287.287,0,0,1-.095.093.2.2,0,0,0-.095.051.1.1,0,0,0-.03.074.171.171,0,0,0,.015.071c.009.019.021.03.032.03v.078a.144.144,0,0,0-.035.065.406.406,0,0,0-.012.106.2.2,0,0,0,.03.11A.089.089,0,0,0,9,10.393h.07a1.858,1.858,0,0,0,.075.257c.032.089.069.177.1.251a1.1,1.1,0,0,0,.129.206,1.837,1.837,0,0,0,.152.177l.051.152.051.152.051.164.051.164c-.02.238-.047.492-.074.709s-.055.4-.074.486-.09.217-.141.355a1.317,1.317,0,0,0-.094.355c.016.09.024.166.03.223a.244.244,0,0,0,.024.106c.008,0,.014.012.018.034a.62.62,0,0,1,.006.1v.047a.19.19,0,0,1-.012.077.037.037,0,0,1-.035.024.1.1,0,0,0-.025.036.115.115,0,0,0-.007.042v.156a.292.292,0,0,1-.015.092c-.009.027-.021.053-.032.08a.1.1,0,0,0-.024.049.392.392,0,0,0-.007.084h.078a.228.228,0,0,0,.016.074.228.228,0,0,1,.016.074c.09-.012.184-.029.277-.051s.187-.047.277-.074a.034.034,0,0,0,.024-.012.042.042,0,0,1,.03-.012.244.244,0,0,0,.092-.019c.027-.011.053-.024.08-.036-.012-.141-.025-.268-.029-.366s0-.169.029-.2a.294.294,0,0,0,.042-.044c.013-.015.024-.026.036-.026a.018.018,0,0,0,.018-.013.11.11,0,0,0,.006-.042.253.253,0,0,0-.012-.051.282.282,0,0,1-.012-.074.082.082,0,0,1,0-.1c0-.012.02-.025.046-.039s.06-.027.087-.039a.166.166,0,0,0,.086-.03.52.52,0,0,0,.086-.071l.1-.051.1-.051a.152.152,0,0,0,.095-.069A.259.259,0,0,0,10.875,13.518Z"/><path class="cls-2" d="M2.437,3.456A.106.106,0,0,1,2.45,3.4a.047.047,0,0,1,.042-.019.092.092,0,0,1,.023-.018.052.052,0,0,1,.023-.006H2.57a.051.051,0,0,1,.035.018.206.206,0,0,1,.035.053c.016.016.035.035.054.051a.1.1,0,0,0,.048.027.19.19,0,0,0,.077-.012.037.037,0,0,0,.024-.035.087.087,0,0,0-.03-.054.235.235,0,0,0-.071-.048.235.235,0,0,1-.011-.107.344.344,0,0,1,.042-.119.619.619,0,0,1,.086-.11.134.134,0,0,1,.086-.046h.586a.653.653,0,0,1,.2.046.714.714,0,0,1,.2.11.992.992,0,0,0,.158.089.359.359,0,0,0,.123.036h.125A.068.068,0,0,1,4.4,3.3a.256.256,0,0,1,.019.1.232.232,0,0,0,.007.063c0,.014.01.022.018.022a.021.021,0,0,0,.014-.007.1.1,0,0,0,.016-.022.049.049,0,0,1,.047-.031.082.082,0,0,1,.045.015.093.093,0,0,1,.033.04c.027.043.057.092.09.141A.969.969,0,0,0,4.8,3.76c.027.035.064.086.1.141a.748.748,0,0,1,.081.164c.027.043.057.088.086.125a.257.257,0,0,0,.086.078.179.179,0,0,1,.075.066.207.207,0,0,1,.034.113.109.109,0,0,0,.125.125h.172c.027,0,.047,0,.047.028a.671.671,0,0,1-.07.2,1.76,1.76,0,0,0,0,.644,1.076,1.076,0,0,0,.157.527l.051.039.051.039c.125.18.258.373.372.545s.21.322.261.416.1.174.128.238a.574.574,0,0,1,.052.121l.008.008.008.008a.023.023,0,0,0,.013.007h.034a.014.014,0,0,0,.011-.006.029.029,0,0,0,0-.018V7.143l-.016-.016-.016-.016V6.784a.8.8,0,0,0,.054.083c.019.024.036.042.048.042a.092.092,0,0,0,.03.054c.019.02.044.044.071.071a.292.292,0,0,1,.062.051c.016.016.027.027.039.027a.532.532,0,0,0,.062.136c.038.069.091.157.149.247v.024l.012.016.012.016,0,.018L7.18,7.6l-.007.012V7.62c-.016,0-.023.014-.027.03a.219.219,0,0,0,0,.048.1.1,0,0,0,.019.051.135.135,0,0,0,.06.051l.078.062.078.062V8a.175.175,0,0,0-.024.029.037.037,0,0,0-.007.018.022.022,0,0,0-.006.016.022.022,0,0,0,.006.016c0,.012.012.018.03.021a.511.511,0,0,0,.071,0H7.7a.522.522,0,0,1,.125.016.406.406,0,0,1,.1.039l.078.062.078.062v.023a.819.819,0,0,0,.113.036.538.538,0,0,0,.113.019.161.161,0,0,1,.086.03.174.174,0,0,1,.063.071v.172c0,.027.033.061.069.087a.255.255,0,0,0,.087.046v.024a.755.755,0,0,0,.09.032.344.344,0,0,0,.09.015.13.13,0,0,0,.041-.006.074.074,0,0,0,.029-.018V8.8s0-.006-.009-.01a.043.043,0,0,1-.015-.022.662.662,0,0,1-.018-.193c0-.1.006-.217.018-.346v-.1H8.814A.03.03,0,0,1,8.8,8.12l-.012-.008L8.773,8.1c0-.012-.008-.061-.012-.133A1.373,1.373,0,0,1,8.773,7.7l-.016-.023-.016-.023V7.6a.05.05,0,0,0-.008-.031.027.027,0,0,0-.022-.01.068.068,0,0,0-.032.01.187.187,0,0,0-.039.031H8.617a.577.577,0,0,1-.087.051c-.036.02-.069.039-.069.051s-.029.025-.044.039-.026.027-.026.039a.025.025,0,0,0-.024.013.091.091,0,0,0-.007.042.05.05,0,0,0,0,.047c0,.012-.025.031-.054.048a.219.219,0,0,1-.071.03H8.109A.046.046,0,0,1,8.055,7.9a.084.084,0,0,1-.035-.012.084.084,0,0,0-.035-.012.1.1,0,0,1-.042-.012.092.092,0,0,0-.036-.012A.581.581,0,0,1,7.87,7.8a.115.115,0,0,1-.019-.048.48.48,0,0,0-.029-.06c-.008-.013-.014-.019-.018-.019L7.8,7.666l-.008-.008a.023.023,0,0,1-.007-.014V7.62a.135.135,0,0,1-.023-.1.55.55,0,0,1,.023-.154V7.213A.621.621,0,0,1,7.8,7.129c.009-.041.021-.092.032-.143a.427.427,0,0,1,.042-.093.207.207,0,0,1,.06-.063.068.068,0,0,0,.036-.012.242.242,0,0,0,.042-.035c.008-.019.013-.034.018-.045s.008-.016.013-.016l.007,0,.009.011.031.008.031.008a.209.209,0,0,0,.053.007h.088c.036.008.075.017.112.023a.673.673,0,0,0,.105.01l.036,0a.115.115,0,0,0,.028-.007.116.116,0,0,0,.06-.012.038.038,0,0,0,.019-.035.035.035,0,0,1,.019-.031.11.11,0,0,1,.055-.011l.038,0,.045.008a.937.937,0,0,0,.106.042.233.233,0,0,0,.065.013.1.1,0,0,1,.042.012.092.092,0,0,0,.036.012.606.606,0,0,0,.012.066.611.611,0,0,1,.012.113v.1a1.726,1.726,0,0,0,.159.093.3.3,0,0,0,.106.037h.01l.007,0a.088.088,0,0,0,.048-.019.073.073,0,0,0,.03-.06.391.391,0,0,0-.012-.1.286.286,0,0,1-.012-.051c-.016,0-.024-.023-.027-.058a1.181,1.181,0,0,1,0-.122c0-.043,0-.086,0-.125a.258.258,0,0,1,.027-.1.341.341,0,0,0,.035-.087c.012-.038.023-.081.035-.116a.484.484,0,0,1,.069-.09A.3.3,0,0,1,9.609,6.2c.027,0,.047-.023.06-.058a.368.368,0,0,0,.019-.122.133.133,0,0,1,0-.107.31.31,0,0,1,.067-.1.161.161,0,0,0,.071-.078.287.287,0,0,0,.03-.125.219.219,0,0,1,.019-.083c.011-.024.024-.042.036-.042a.143.143,0,0,1,.062-.023.144.144,0,0,0,.062-.023.1.1,0,0,0,.051-.03.226.226,0,0,0,.051-.071V5.284a.058.058,0,0,1,.026-.013.153.153,0,0,1,.073,0,.058.058,0,0,1,.026.013.047.047,0,0,1,.055.055.242.242,0,0,0,.042.035.068.068,0,0,0,.036.012h.1a.03.03,0,0,0,.023-.012.03.03,0,0,1,.023-.012V5.349l-.007-.019a.261.261,0,0,0-.014-.035A.134.134,0,0,0,10.5,5.26l-.016-.016-.016-.016h-.024v-.2l-.012-.012L10.422,5l-.012-.012L10.4,4.979l.022-.007.018,0a.057.057,0,0,1,.032.01c.01.006.019.014.03.023l.039.066.039.066c0,.012.01.023.026.032a.147.147,0,0,0,.067.015H10.8a.109.109,0,0,0,.06-.015.521.521,0,0,0,.042-.032.328.328,0,0,0,.074-.058A.255.255,0,0,0,11.031,5c.027-.012.035-.029.029-.044a.054.054,0,0,0-.053-.026.124.124,0,0,1-.08-.019.023.023,0,0,1,0-.036.047.047,0,0,0-.019-.042.106.106,0,0,0-.06-.013.165.165,0,0,1-.074-.015.106.106,0,0,1-.051-.056V4.7a.068.068,0,0,0-.03-.06.127.127,0,0,0-.071-.019h-.078a.047.047,0,0,1-.019.042.106.106,0,0,1-.06.013l-.021.007-.019,0a.051.051,0,0,1-.04-.017.07.07,0,0,1-.015-.047.147.147,0,0,1,.015-.067c.009-.017.021-.026.032-.026a.179.179,0,0,0,.051-.016.179.179,0,0,1,.051-.016.2.2,0,0,1,.084-.032.7.7,0,0,1,.143-.015.545.545,0,0,1,.141-.027c.049,0,.1,0,.141,0a.186.186,0,0,0,.09-.03.47.47,0,0,0,.09-.071l.063-.086.063-.086a.215.215,0,0,0,.018-.1.189.189,0,0,0-.041-.107h-.234a1.324,1.324,0,0,0-.1-.176.955.955,0,0,0-.1-.129L10.8,3.495l-.074-.141a.809.809,0,0,0-.039-.128c-.014-.032-.027-.052-.039-.052h-.2c-.012.043-.023.074-.032.1a.184.184,0,0,0-.015.058.111.111,0,0,0-.039.012.111.111,0,0,1-.039.012.033.033,0,0,1-.014.008l-.018,0a.2.2,0,0,1-.038-.005.185.185,0,0,0-.032-.005c-.012,0-.018-.014-.02-.03a.291.291,0,0,1,0-.048.289.289,0,0,0-.019-.09c-.011-.031-.024-.062-.036-.09,0-.012-.02-.031-.048-.048a.209.209,0,0,0-.1-.03H9.961a.169.169,0,0,0-.051-.067.121.121,0,0,0-.074-.026H9.789a.321.321,0,0,1-.11-.019c-.028-.011-.046-.024-.046-.036a.062.062,0,0,0-.012-.042.044.044,0,0,0-.035-.013.133.133,0,0,0-.063.016.1.1,0,0,1-.039.016.14.14,0,0,0-.039.068.36.36,0,0,0-.016.1.436.436,0,0,1-.012.116c-.008.026-.02.04-.035.04a.041.041,0,0,0-.036.03.1.1,0,0,0,0,.071.148.148,0,0,0,.03.095.073.073,0,0,0,.048.03.064.064,0,0,1,.059.034.206.206,0,0,1,.019.1.144.144,0,0,1,.006.086.444.444,0,0,1-.029.086.167.167,0,0,1-.03.087.219.219,0,0,1-.071.069.127.127,0,0,0-.06.084.5.5,0,0,0-.019.142.321.321,0,0,1-.019.11c-.011.028-.024.046-.036.046a.1.1,0,0,0-.051-.03.717.717,0,0,1-.074-.024.292.292,0,0,1-.048-.066.244.244,0,0,1-.03-.113A.662.662,0,0,0,9,3.891a.3.3,0,0,0-.1-.107H8.844a.2.2,0,0,1-.034.008l-.037,0a.226.226,0,0,1-.082-.014.088.088,0,0,1-.051-.043.316.316,0,0,0-.051-.078c-.021-.025-.047-.051-.074-.078a.15.15,0,0,0-.069-.035.449.449,0,0,0-.11-.012H8.188a.1.1,0,0,1-.054-.03c-.019-.017-.036-.036-.048-.048a.133.133,0,0,0-.03-.078A.714.714,0,0,0,7.984,3.3H7.93a.6.6,0,0,1-.063-.032.085.085,0,0,0-.039-.015V3.227a.023.023,0,0,1,.007-.014l.008-.008L7.852,3.2l.01.005.011,0a.068.068,0,0,0,.044-.022.171.171,0,0,0,.037-.055.522.522,0,0,0,.039-.09.272.272,0,0,0,.016-.066V2.959l.007-.012.011-.03a.078.078,0,0,0,0-.024.2.2,0,0,1,.055-.074.261.261,0,0,1,.1-.051.32.32,0,0,0,.083-.051.1.1,0,0,0,.042-.074.451.451,0,0,1,.039-.051.085.085,0,0,1,.062-.027h.078c.02,0,.031-.006.035-.019a.1.1,0,0,0-.012-.06.041.041,0,0,1,.047-.047l.027-.016.027-.016.023-.023.023-.023a.232.232,0,0,1,.027.074.269.269,0,0,1,0,.051L8.68,2.5l-.016.012v.133l.016.008.016.008a.055.055,0,0,1,.023.016.055.055,0,0,0,.023.016h.383a.124.124,0,0,0,.054-.012.172.172,0,0,0,.048-.035A.11.11,0,0,0,9.221,2.6.018.018,0,0,0,9.2,2.588.226.226,0,0,1,9.1,2.54a.9.9,0,0,1-.119-.1H8.922a.064.064,0,0,1-.057-.03.039.039,0,0,1,0-.048.1.1,0,0,0,.055-.027.712.712,0,0,0,.055-.051.1.1,0,0,0,.067-.027.076.076,0,0,0,.026-.051l.039-.074.039-.074a.129.129,0,0,1,.078-.078.14.14,0,0,0,.042-.006A.136.136,0,0,0,9.3,1.956h.008a.014.014,0,0,0,.011-.006.029.029,0,0,0,0-.018.016.016,0,1,0,0-.031c0-.008-.01-.014-.03-.017A.552.552,0,0,0,9.2,1.877H9.125a.346.346,0,0,1-.018-.095.073.073,0,0,1,.018-.054l.051-.039.051-.039h.038a.313.313,0,0,1,.075.008.3.3,0,0,1,.091.04l.09.039.09.039a.209.209,0,0,1,.09.03c.031.017.063.036.09.048a.443.443,0,0,1,.071.036c.019.013.03.026.03.042a.031.031,0,0,1,0,.039c-.007.016-.021.035-.036.062v.024l-.023.09-.023.09A.407.407,0,0,1,9.8,2.3a.407.407,0,0,0-.012.062.278.278,0,0,1-.054.06.078.078,0,0,1-.048.019.179.179,0,0,1-.06-.007.025.025,0,0,1-.019-.024H9.586l-.008.007H9.57l-.011.012,0,.012-.018.018a.021.021,0,0,0-.006.013v.016c0,.012.018.018.042.02a.763.763,0,0,0,.083,0,.352.352,0,0,1,.113.019.184.184,0,0,1,.066.036l.039.039.039.039a.124.124,0,0,0,.03.063.184.184,0,0,0,.095.062.215.215,0,0,1,.1.063.841.841,0,0,0,.058.063.061.061,0,0,0,.012.042.044.044,0,0,0,.035.013l.007,0,.007,0a.052.052,0,0,0,.033-.021c.011-.012.022-.027.031-.04a.093.093,0,0,1,.036-.071.139.139,0,0,1,.089-.03.331.331,0,0,0,.09-.015.176.176,0,0,0,.066-.032.072.072,0,0,0,.018-.03.164.164,0,0,0,.006-.048l-.09-.09-.09-.09h-.023L10.4,2.475l-.023-.012.023-.039.023-.039a.022.022,0,0,1,0-.013l.008,0,.008,0a.022.022,0,0,1,0,.013c.012,0,.031.018.055.042s.051.056.078.083l.023.027.023.027.039.012.039.012a.269.269,0,0,1,.03-.078c.019-.037.044-.082.071-.125h.024l.012-.012.012-.012a.135.135,0,0,0,.06-.051.1.1,0,0,0,.019-.051.062.062,0,0,0-.036-.06.254.254,0,0,0-.112-.019h-.055a.078.078,0,0,0-.007-.029.194.194,0,0,0-.024-.041L10.684,2.1l-.012-.016a.594.594,0,0,1-.062,0,.671.671,0,0,1-.109-.02.353.353,0,0,1-.11-.016c-.028-.01-.046-.023-.046-.039a.057.057,0,0,1,.019-.035c.011-.012.024-.023.036-.035a.089.089,0,0,0,.044-.069.774.774,0,0,0,0-.11.3.3,0,0,0-.026-.1.291.291,0,0,0-.044-.078.182.182,0,0,0-.1-.063c-.048-.016-.1-.027-.155-.039A.619.619,0,0,1,9.9,1.4a1.326,1.326,0,0,1-.263-.16h-.18a.58.58,0,0,1-.143-.019.214.214,0,0,1-.084-.036.019.019,0,0,0-.012-.018.082.082,0,0,0-.035-.006l-.01-.006-.008,0a.01.01,0,0,0-.01.008.069.069,0,0,0,0,.023L9.141,1.2l-.008.008a.023.023,0,0,1-.013.007H9.1a.117.117,0,0,0-.048.042.07.07,0,0,0-.007.036.2.2,0,0,1-.012.054.2.2,0,0,0-.012.048A.05.05,0,0,1,9,1.432a.1.1,0,0,1-.051.016H8.922V1.323a.106.106,0,0,0-.013-.06.047.047,0,0,0-.042-.019.044.044,0,0,1-.035-.013A.062.062,0,0,1,8.82,1.19a.041.041,0,0,0-.047-.047.092.092,0,0,0-.051.015.064.064,0,0,0-.027.056H8.664a.192.192,0,0,0-.012.09c0,.035,0,.066-.012.066v.024a.126.126,0,0,0,.013.057.108.108,0,0,0,.042.045l.012.039.012.039L8.73,1.6l.012.023a.029.029,0,0,1,.016-.007H8.8a.029.029,0,0,1,.018.007.044.044,0,0,1,.035.013.061.061,0,0,1,.012.042.136.136,0,0,0,.036.018.14.14,0,0,0,.042.006.3.3,0,0,1,.039.042A.1.1,0,0,1,9,1.8a.084.084,0,0,1-.03.051.091.091,0,0,1-.048.027c-.027,0-.027.014-.021.03a.206.206,0,0,1,.021.048v.024h-.1a.111.111,0,0,1-.06-.019A.294.294,0,0,1,8.7,1.9a.524.524,0,0,0-.069-.044.2.2,0,0,0-.087-.026.255.255,0,0,1-.095-.013.043.043,0,0,1-.03-.042l-.039-.062-.039-.062A.27.27,0,0,1,8.3,1.585a.222.222,0,0,1-.015-.06.066.066,0,0,0-.019-.042c-.011-.013-.024-.024-.036-.036A.092.092,0,0,1,8.2,1.436a.1.1,0,0,0-.042-.012.135.135,0,0,1,.007-.048.061.061,0,0,1,.024-.03.055.055,0,0,1,.026-.036.087.087,0,0,1,.044-.019.211.211,0,0,1,.133-.047.074.074,0,0,1,.018-.022.086.086,0,0,1,.029-.017L8.449,1.2l.012-.008a.09.09,0,0,0-.018-.054.2.2,0,0,0-.053-.048H8.359l-.137.039-.137.039c-.016,0-.035.018-.048.042a.1.1,0,0,0-.007.083v.234a.419.419,0,0,0,.013.1.349.349,0,0,0,.042.1.1.1,0,0,0,.026.048c.015.019.032.038.044.054a.026.026,0,0,1,.024.012.068.068,0,0,1,.007.035.071.071,0,0,1-.019.039.449.449,0,0,1-.036.039l-.016.008L8.1,1.971a.029.029,0,0,1-.018.007H8.055A.068.068,0,0,1,8,1.96a.085.085,0,0,1-.018-.06V1.877a.054.054,0,0,0-.019-.048A.16.16,0,0,1,7.93,1.8H7.906l0-.008-.01,0a.261.261,0,0,0-.037.005A.3.3,0,0,1,7.8,1.8l-.012.016-.012.016a.028.028,0,0,0-.012.035.125.125,0,0,1,.012.035h.047a.042.042,0,0,0,.012.03.034.034,0,0,1,.012.024.029.029,0,0,1,0,.018.013.013,0,0,1-.011.006H7.68a.173.173,0,0,0-.077.013.043.043,0,0,0-.024.042c0,.012-.02.018-.046.021a.849.849,0,0,1-.087,0L7.434,2.03,7.422,2,7.41,1.979,7.4,1.956c.012,0,.008-.006-.01-.012A.307.307,0,0,0,7.3,1.932H7.266c0,.016-.01.027-.03.035a.282.282,0,0,1-.095.012h-.1a.2.2,0,0,0-.074.013.1.1,0,0,0-.051.042.088.088,0,0,0-.062.026c-.016.015-.027.032-.039.044a.058.058,0,0,1,0,.022.054.054,0,0,1-.011.017l-.007.008v.008l-.008-.008-.008-.008s-.012-.008-.02-.014a.053.053,0,0,1-.02-.025l-.062-.062-.062-.062H6.555c0,.027-.025.047-.069.06a.693.693,0,0,1-.181.019H6.25a.252.252,0,0,0,.042-.051.147.147,0,0,1,.06-.051.047.047,0,0,0,.023-.02.047.047,0,0,1,.023-.02l.016-.008L6.43,1.9a.124.124,0,0,0,.039-.012.17.17,0,0,1,.062-.012.111.111,0,0,1,.039.012.111.111,0,0,0,.039.012l.012.016.012.016.008.008.008.008.02.016.02.016h.023V2a.17.17,0,0,0,.063-.012.124.124,0,0,1,.039-.012l.012-.012.012-.012.027-.027L6.891,1.9a.06.06,0,0,1,.042-.056.216.216,0,0,1,.083-.015h.156a.254.254,0,0,1,.071.012.215.215,0,0,0,.054.012l.016,0,.016.011.008.007h.008l.025.013.017,0,.01,0,0-.013a.041.041,0,0,0,.047-.047c.016,0,.024-.02.027-.046a.638.638,0,0,0,0-.087.25.25,0,0,0-.03-.1.4.4,0,0,0-.071-.1.478.478,0,0,1-.1-.119.8.8,0,0,1-.055-.107.283.283,0,0,0-.012-.095c-.008-.021-.02-.03-.035-.03a.062.062,0,0,0-.042.012.044.044,0,0,0-.013.035.046.046,0,0,1-.055.055.1.1,0,0,0-.053.012.039.039,0,0,0-.018.035.134.134,0,0,1-.007.048.062.062,0,0,1-.024.03.1.1,0,0,1-.044-.015c-.015-.009-.026-.02-.026-.032a.23.23,0,0,0-.117-.075.575.575,0,0,0-.187-.034H6.18a.246.246,0,0,1,.006-.059A.074.074,0,0,1,6.2,1.12V1.065l-.016-.008-.016-.008a.086.086,0,0,1-.029-.017.074.074,0,0,1-.018-.022H6.1c-.106.027-.2.055-.293.084s-.18.061-.27.1a.071.071,0,0,1-.03.018.163.163,0,0,1-.048.006.018.018,0,0,0-.018.013.109.109,0,0,0-.006.042l.027.027.027.027.062.035.062.035a.315.315,0,0,1,.063.016.316.316,0,0,0,.063.016.391.391,0,0,0,.084-.007.1.1,0,0,0,.049-.024l0-.008,0-.008a.056.056,0,0,0,.011-.021.119.119,0,0,0,0-.033V1.245a.077.077,0,0,0,.036-.016.082.082,0,0,1,.042-.016.088.088,0,0,1,.053.013.049.049,0,0,1,.018.042v.055l.039.035.039.035a.073.073,0,0,0,.013.039.127.127,0,0,0,.042.039A.033.033,0,0,0,6.2,1.5a.068.068,0,0,0,.04.012.084.084,0,0,0,.022,0,.1.1,0,0,0,.024-.01.568.568,0,0,1,.083,0c.024,0,.042.012.042.027a.073.073,0,0,1,.018.029A.129.129,0,0,1,6.43,1.6a.054.054,0,0,1-.027.036.1.1,0,0,1-.051.019.1.1,0,0,0-.1.1.288.288,0,0,1-.039.071.078.078,0,0,1-.062.03.514.514,0,0,1-.071,0c-.019,0-.03-.009-.03-.02a.051.051,0,0,0-.026-.039.089.089,0,0,0-.044-.016A.366.366,0,0,1,5.9,1.77c-.017,0-.024-.01-.024-.018a.169.169,0,0,0-.064-.024c-.028-.007-.065-.015-.116-.03-.043,0-.082,0-.113,0a.113.113,0,0,1-.066-.021c0-.012-.014-.018-.03-.02a.293.293,0,0,0-.048,0A.077.077,0,0,1,5.4,1.635a.082.082,0,0,0-.042-.016c0-.012-.01-.018-.026-.021a.44.44,0,0,0-.067,0,.1.1,0,0,0-.051.016.05.05,0,0,0-.027.039.061.061,0,0,1-.019.036c-.011.013-.024.026-.036.042a.077.077,0,0,0-.024,0l-.03.011-.012.007H5.055q0,.012-.018.018a.178.178,0,0,1-.053.006H4.951a.037.037,0,0,1-.021-.007L4.918,1.76l-.012-.008A.046.046,0,0,0,4.852,1.7a.06.06,0,0,1-.018.042.181.181,0,0,1-.053.036.272.272,0,0,1-.09.06.243.243,0,0,1-.09.019.176.176,0,0,1-.086-.016A.124.124,0,0,1,4.477,1.8c0-.008-.012-.014-.034-.018a.622.622,0,0,0-.1-.006H4.3a7.128,7.128,0,0,0-.737.509,7.677,7.677,0,0,0-.685.609q-.152.152-.293.311t-.27.329a.115.115,0,0,0,.042-.007A.1.1,0,0,0,2.391,3.5a.041.041,0,0,0,.047-.047Z"/><path class="cls-3" d="M12.952,3.058q-.238-.238-.494-.45t-.529-.4v.05a1.069,1.069,0,0,1-.072.382,1.141,1.141,0,0,1-.2.334v0l.007.014.007.014a1,1,0,0,1,.427.318,1.193,1.193,0,0,1,.242.583,1.208,1.208,0,0,1-.088.628,1,1,0,0,1-.111.2l-.044.061-.044.061a1.019,1.019,0,0,1-.257.8,1.3,1.3,0,0,1-.143.16,1.326,1.326,0,0,1-.169.136,1.2,1.2,0,0,1-.132.087,1.106,1.106,0,0,1-.139.067,1,1,0,0,1-.177.128,1.021,1.021,0,0,1-.4.143,1.285,1.285,0,0,1-.1.255,1.152,1.152,0,0,1-.154.225c.007.035.012.074.017.117s.007.089.007.139a1.072,1.072,0,0,1-.1.462c.035.014.069.03.1.046s.063.033.091.05a1.909,1.909,0,0,1,.436.081,1.619,1.619,0,0,1,.386.173l.04.027.039.029q.086.067.157.133a1.626,1.626,0,0,1,.129.135,1.542,1.542,0,0,1,.31.143,1.367,1.367,0,0,1,.258.2,1.184,1.184,0,0,1,.255.323q.046.021.092.045t.089.054a1.241,1.241,0,0,1,.263.09,1.324,1.324,0,0,1,.24.147,1.1,1.1,0,0,1,.6.318,1.187,1.187,0,0,1,.315.63l0,.027,0,.027.012.1.012.1a1,1,0,0,1-.393.915,1.283,1.283,0,0,1-.123.383,1.187,1.187,0,0,1-.23.313,1.1,1.1,0,0,1-.277.551,1.264,1.264,0,0,1-.551.343c-.026.086-.055.178-.093.272a1.537,1.537,0,0,1-.143.277,7.051,7.051,0,0,0,1.948-2.4,6.978,6.978,0,0,0-1.321-8.055Z"/><path class="cls-3" d="M8.008,15.01h.133l.133,0v-.034a1.432,1.432,0,0,1,.02-.241,1.183,1.183,0,0,1,.059-.218h0a1.135,1.135,0,0,1,.011-.156,1.11,1.11,0,0,1,.032-.151l0-.038,0-.034-.008-.067c0-.023-.006-.046-.01-.069s-.009-.057-.011-.086,0-.057,0-.086a1.57,1.57,0,0,1,.068-.436,5.579,5.579,0,0,1,.2-.559c.013-.076.029-.193.047-.333s.036-.3.052-.471l-.02-.065-.02-.065-.017-.05-.017-.05c-.051-.062-.107-.136-.16-.216a1.869,1.869,0,0,1-.146-.259c-.013-.027-.029-.062-.047-.1s-.038-.089-.058-.141a1.122,1.122,0,0,1-.076-.085,1.136,1.136,0,0,1-.068-.093,1.177,1.177,0,0,1-.144-.313,1.223,1.223,0,0,1-.049-.345q0-.049,0-.1t.008-.09q-.006-.04-.008-.082t0-.084a1.114,1.114,0,0,1,.014-.176,1.093,1.093,0,0,1,.041-.168,1.276,1.276,0,0,1-.18-.157,1.2,1.2,0,0,1-.148-.19q-.038-.02-.074-.042T7.482,9.1H7.445a1.171,1.171,0,0,1-.626-.162.981.981,0,0,1-.352-.379q-.023-.042-.042-.086t-.034-.088l-.014-.017-.013-.017A1,1,0,0,1,6.1,8.238a1.038,1.038,0,0,1-.183-.146l0,0,0,0-.008-.008L5.9,8.073A1,1,0,0,1,5.666,7.7l-.041-.079c-.018-.034-.04-.074-.066-.12l0-.008,0-.008c-.011-.02-.04-.072-.113-.185s-.189-.288-.373-.555a1.224,1.224,0,0,1-.369-.532,2.866,2.866,0,0,1-.148-.638q-.016-.117-.024-.22c-.006-.069-.01-.133-.012-.192a1.078,1.078,0,0,1-.092-.134,1.1,1.1,0,0,1-.072-.149,1.669,1.669,0,0,1-.12-.152c-.034-.048-.062-.092-.085-.129s-.034-.057-.049-.087-.028-.06-.04-.091l-.006-.01L4.037,4.4l0,0,0,0a1.024,1.024,0,0,1-.195-.115,1,1,0,0,1-.168-.16l-.022-.01L3.622,4.1a1.018,1.018,0,0,1-.359.29,1.18,1.18,0,0,1-.52.113l-.068,0L2.61,4.494a1.112,1.112,0,0,1-.146.03,1.137,1.137,0,0,1-.151.01,1,1,0,0,1-.355-.065A6.9,6.9,0,0,0,1.245,6.16a7.015,7.015,0,0,0,6.763,8.85Z"/><path class="cls-4" d="M16,8A7.992,7.992,0,0,0,8.008.01H8A7.977,7.977,0,0,0,2.214,2.485h0l-.026.028-.026.028A7.955,7.955,0,0,0,0,8V8.01a8,8,0,0,0,8,8h.008a7.938,7.938,0,0,0,3.388-.755l.039-.018.038-.018h0A8,8,0,0,0,16,8.01V8ZM15,8.21v0a6.973,6.973,0,0,1-.769,2.988,7.052,7.052,0,0,1-1.9,2.31,1.537,1.537,0,0,0,.143-.277c.038-.093.067-.186.093-.272a1.264,1.264,0,0,0,.551-.343,1.1,1.1,0,0,0,.277-.551,1.187,1.187,0,0,0,.23-.313,1.283,1.283,0,0,0,.123-.383,1,1,0,0,0,.393-.915l-.012-.1-.012-.1,0-.027,0-.027a1.187,1.187,0,0,0-.315-.63,1.1,1.1,0,0,0-.6-.318,1.324,1.324,0,0,0-.24-.147,1.241,1.241,0,0,0-.263-.09q-.044-.029-.089-.054T12.5,8.916a1.184,1.184,0,0,0-.255-.323,1.367,1.367,0,0,0-.258-.2,1.542,1.542,0,0,0-.31-.143,1.626,1.626,0,0,0-.129-.135q-.071-.067-.157-.133l-.039-.029-.04-.027a1.619,1.619,0,0,0-.386-.173,1.909,1.909,0,0,0-.436-.081c-.029-.017-.059-.034-.091-.05s-.066-.031-.1-.046a1.072,1.072,0,0,0,.1-.462c0-.05,0-.1-.007-.139s-.01-.082-.017-.117a1.152,1.152,0,0,0,.154-.225,1.285,1.285,0,0,0,.1-.255,1.021,1.021,0,0,0,.4-.143,1,1,0,0,0,.177-.128,1.106,1.106,0,0,0,.139-.067,1.2,1.2,0,0,0,.132-.087,1.326,1.326,0,0,0,.169-.136,1.3,1.3,0,0,0,.143-.16,1.019,1.019,0,0,0,.257-.8l.044-.061.044-.061a1,1,0,0,0,.111-.2,1.208,1.208,0,0,0,.088-.628,1.193,1.193,0,0,0-.242-.583,1,1,0,0,0-.427-.318l-.007-.014-.007-.014v0a1.141,1.141,0,0,0,.2-.334,1.069,1.069,0,0,0,.072-.382V2.215q.272.185.528.4t.493.449A6.954,6.954,0,0,1,15,8.006q0,.051,0,.1T15,8.21Zm-6.765,6.8-.1,0H8a7.016,7.016,0,0,1-7-7V7.892L1,7.8l0-.048,0-.048,0-.051,0-.05,0-.058,0-.058,0-.019,0-.019q.006-.074.013-.147t.016-.147V7.138l.01-.08.011-.08V6.965a6.922,6.922,0,0,1,.882-2.5,1,1,0,0,0,.353.065,1.137,1.137,0,0,0,.151-.01,1.112,1.112,0,0,0,.146-.03l.065.006.068,0a1.18,1.18,0,0,0,.52-.113,1.018,1.018,0,0,0,.359-.29l.022.011.022.01a1,1,0,0,0,.168.16,1.024,1.024,0,0,0,.195.115l0,0,0,0,.007.011.006.01q.018.047.04.091t.049.087c.023.037.051.081.085.129a1.669,1.669,0,0,0,.12.152,1.1,1.1,0,0,0,.072.149,1.078,1.078,0,0,0,.092.134c0,.06.006.124.012.192s.014.142.024.22a2.866,2.866,0,0,0,.148.638,1.224,1.224,0,0,0,.369.532c.184.267.3.441.373.555s.1.165.113.185l0,.008,0,.008c.026.046.048.087.066.12l.041.079a1,1,0,0,0,.232.371l.008.008.008.008,0,0,0,0a1.038,1.038,0,0,0,.183.146,1,1,0,0,0,.263.116l.013.017.014.017q.015.045.034.088t.042.086a.981.981,0,0,0,.352.379,1.171,1.171,0,0,0,.626.162h.037q.033.025.069.048t.074.042a1.2,1.2,0,0,0,.148.19,1.276,1.276,0,0,0,.18.157,1.093,1.093,0,0,0-.041.168,1.114,1.114,0,0,0-.014.176q0,.042,0,.084t.008.082q-.005.044-.008.09t0,.1a1.223,1.223,0,0,0,.049.345,1.177,1.177,0,0,0,.144.313,1.136,1.136,0,0,0,.068.093,1.122,1.122,0,0,0,.076.085c.02.052.04.1.058.141s.034.077.047.1a1.869,1.869,0,0,0,.146.259c.053.081.109.154.16.216l.017.05.017.05.02.065.02.065c-.016.168-.035.331-.052.471s-.034.257-.047.333a5.579,5.579,0,0,0-.2.559,1.57,1.57,0,0,0-.068.436q0,.043,0,.086t.011.086c0,.023.007.046.01.069l.008.067,0,.034,0,.038a1.11,1.11,0,0,0-.032.151,1.135,1.135,0,0,0-.011.156h0a1.183,1.183,0,0,0-.059.218,1.432,1.432,0,0,0-.02.241V15H8.232ZM5.9,1.33a.123.123,0,0,1-.005.029.05.05,0,0,1-.009.018l0,.008,0,.008a.1.1,0,0,1-.049.024.391.391,0,0,1-.084.007.137.137,0,0,1-.03-.006L5.67,1.406l.113-.039Zm-.992.422.012.008.012.008a.037.037,0,0,0,.021.007h.033a.178.178,0,0,0,.053-.006q.018-.006.018-.018h.012l.012-.007.03-.011a.077.077,0,0,1,.024,0c.012-.016.025-.029.036-.042a.061.061,0,0,0,.019-.036.05.05,0,0,1,.027-.039A.1.1,0,0,1,5.266,1.6a.44.44,0,0,1,.067,0c.017,0,.026.009.026.021a.082.082,0,0,1,.042.016.077.077,0,0,0,.036.016.293.293,0,0,1,.048,0c.017,0,.03.009.03.02a.113.113,0,0,0,.066.021c.031,0,.07,0,.113,0,.051.016.088.023.116.03a.169.169,0,0,1,.064.024c0,.008.008.014.024.018a.366.366,0,0,0,.077.006.089.089,0,0,1,.044.016.051.051,0,0,1,.026.039c0,.012.012.018.03.02a.514.514,0,0,0,.071,0,.078.078,0,0,0,.062-.03.288.288,0,0,0,.039-.071.1.1,0,0,1,.1-.1A.1.1,0,0,0,6.4,1.632.054.054,0,0,0,6.43,1.6a.129.129,0,0,0-.006-.041.073.073,0,0,0-.018-.029c0-.016-.018-.024-.042-.027a.568.568,0,0,0-.083,0,.1.1,0,0,1-.024.01.084.084,0,0,1-.022,0A.068.068,0,0,1,6.2,1.5a.033.033,0,0,1-.016-.024.127.127,0,0,1-.042-.039.073.073,0,0,1-.013-.039l-.039-.035-.039-.035V1.285l.134-.037.135-.035h.271a.575.575,0,0,1,.187.034.23.23,0,0,1,.117.075c0,.012.012.023.026.032a.1.1,0,0,0,.044.015.062.062,0,0,0,.024-.03.134.134,0,0,0,.007-.048.039.039,0,0,1,.018-.035.1.1,0,0,1,.053-.012.046.046,0,0,0,.055-.055.044.044,0,0,1,.013-.035.062.062,0,0,1,.042-.012c.016,0,.027.01.035.03a.283.283,0,0,1,.012.095.8.8,0,0,0,.055.107.478.478,0,0,0,.1.119.4.4,0,0,1,.071.1.25.25,0,0,1,.03.1.638.638,0,0,1,0,.087c0,.026-.012.046-.027.046a.041.041,0,0,1-.047.047l0,.013-.01,0-.017,0-.025-.013H7.336L7.328,1.87l-.016-.011-.016,0a.215.215,0,0,1-.054-.012.254.254,0,0,0-.071-.012H7.016a.216.216,0,0,0-.083.015.06.06,0,0,0-.042.056l-.027.027-.027.027-.012.012-.012.012a.124.124,0,0,0-.039.012A.17.17,0,0,1,6.711,2V1.979H6.688l-.02-.016-.02-.016L6.641,1.94l-.008-.008-.012-.016L6.609,1.9a.111.111,0,0,1-.039-.012.111.111,0,0,0-.039-.012.17.17,0,0,0-.062.012A.124.124,0,0,1,6.43,1.9l-.016.008L6.4,1.916a.047.047,0,0,0-.023.02.047.047,0,0,1-.023.02.147.147,0,0,0-.06.051.252.252,0,0,1-.042.051H6.3a.693.693,0,0,0,.181-.019c.044-.013.069-.032.069-.06h.055l.062.062.062.062a.053.053,0,0,0,.02.025c.008.006.016.01.02.014l.008.008.008.008V2.151L6.8,2.143a.054.054,0,0,0,.011-.017.058.058,0,0,0,0-.022c.012-.012.023-.029.039-.044a.088.088,0,0,1,.062-.026.1.1,0,0,1,.051-.042.2.2,0,0,1,.074-.013h.1a.282.282,0,0,0,.095-.012c.021-.008.03-.02.03-.035H7.3a.307.307,0,0,1,.092.012c.018.006.021.012.01.012l.012.023L7.422,2l.012.027.012.027a.849.849,0,0,0,.087,0c.026,0,.046-.009.046-.021A.043.043,0,0,1,7.6,1.992a.173.173,0,0,1,.077-.013h.156a.013.013,0,0,0,.011-.006.029.029,0,0,0,0-.018.034.034,0,0,0-.012-.024.042.042,0,0,1-.012-.03H7.781a.125.125,0,0,0-.012-.035.028.028,0,0,1,.012-.035l.012-.016L7.8,1.8a.3.3,0,0,0,.051-.005.261.261,0,0,1,.037-.005l.01,0,0,.008H7.93a.16.16,0,0,0,.036.03.054.054,0,0,1,.019.048V1.9A.085.085,0,0,0,8,1.96a.068.068,0,0,0,.053.019h.029A.029.029,0,0,0,8.1,1.971l.016-.008.016-.008a.449.449,0,0,0,.036-.039.071.071,0,0,0,.019-.039.068.068,0,0,0-.007-.035.026.026,0,0,0-.024-.012c-.012-.016-.029-.035-.044-.054a.1.1,0,0,1-.026-.048.349.349,0,0,1-.042-.1.419.419,0,0,1-.013-.1V1.291a.1.1,0,0,1,.007-.083c.013-.024.032-.042.048-.042l.137-.039.137-.039h.031a.2.2,0,0,1,.053.048.09.09,0,0,1,.018.054L8.449,1.2l-.012.008a.086.086,0,0,0-.029.017.074.074,0,0,0-.018.022.211.211,0,0,0-.133.047.087.087,0,0,0-.044.019.055.055,0,0,0-.026.036.061.061,0,0,0-.024.03.135.135,0,0,0-.007.048.1.1,0,0,1,.042.012.092.092,0,0,0,.036.012c.012.012.025.023.036.036a.066.066,0,0,1,.019.042.222.222,0,0,0,.015.06.27.27,0,0,0,.032.065l.039.062.039.062a.043.043,0,0,0,.03.042.255.255,0,0,0,.095.013.2.2,0,0,1,.087.026A.524.524,0,0,1,8.7,1.9a.294.294,0,0,0,.065.06.111.111,0,0,0,.06.019h.1V1.956A.206.206,0,0,0,8.9,1.908c-.007-.017-.007-.03.021-.03A.091.091,0,0,0,8.97,1.85.084.084,0,0,0,9,1.8a.1.1,0,0,0-.016-.06A.3.3,0,0,0,8.945,1.7.14.14,0,0,1,8.9,1.692a.136.136,0,0,1-.036-.018.061.061,0,0,0-.012-.042A.044.044,0,0,0,8.82,1.62.029.029,0,0,0,8.8,1.613H8.758a.029.029,0,0,0-.016.007L8.73,1.6l-.012-.023-.012-.039L8.7,1.495a.108.108,0,0,1-.042-.045.126.126,0,0,1-.013-.057V1.37c.012,0,.012-.031.012-.066a.192.192,0,0,1,.012-.09H8.7a.064.064,0,0,1,.027-.056.092.092,0,0,1,.051-.015.041.041,0,0,1,.047.047.062.062,0,0,0,.012.042.044.044,0,0,0,.035.013.047.047,0,0,1,.042.019.106.106,0,0,1,.013.06v.125h.023A.1.1,0,0,0,9,1.432a.05.05,0,0,0,.027-.039.2.2,0,0,1,.012-.048.2.2,0,0,0,.012-.054.07.07,0,0,1,.007-.036A.117.117,0,0,1,9.1,1.213H9.12a.023.023,0,0,0,.013-.007L9.141,1.2l.008-.008a.069.069,0,0,1,0-.023.01.01,0,0,1,.01-.008l.008,0,.01.006a.082.082,0,0,1,.035.006.019.019,0,0,1,.012.018.214.214,0,0,0,.084.036.58.58,0,0,0,.143.019h.18A1.326,1.326,0,0,0,9.9,1.4a.619.619,0,0,0,.222.066c.051.012.107.023.155.039a.182.182,0,0,1,.1.063.291.291,0,0,1,.044.078.3.3,0,0,1,.026.1.774.774,0,0,1,0,.11.089.089,0,0,1-.044.069c-.012.012-.025.023-.036.035A.057.057,0,0,0,10.344,2c0,.016.018.029.046.039a.353.353,0,0,0,.11.016.671.671,0,0,0,.109.02.594.594,0,0,0,.062,0l.012.016.012.016a.194.194,0,0,1,.024.041.078.078,0,0,1,.007.029h.055a.254.254,0,0,1,.112.019.062.062,0,0,1,.036.06.1.1,0,0,1-.019.051.135.135,0,0,1-.06.051l-.012.012-.012.012H10.8c-.027.043-.053.088-.071.125a.269.269,0,0,0-.03.078l-.039-.012-.039-.012L10.6,2.538l-.023-.027c-.027-.027-.055-.059-.078-.083s-.043-.042-.055-.042a.022.022,0,0,0,0-.013l-.008,0-.008,0a.022.022,0,0,0,0,.013l-.023.039-.023.039.023.012.023.012h.023l.09.09.09.09a.164.164,0,0,1-.006.048.072.072,0,0,1-.018.03.176.176,0,0,1-.066.032.331.331,0,0,1-.09.015.139.139,0,0,0-.089.03.093.093,0,0,0-.036.071c-.01.013-.02.028-.031.04a.052.052,0,0,1-.033.021l-.007,0-.007,0a.044.044,0,0,1-.035-.013.061.061,0,0,1-.012-.042.841.841,0,0,1-.058-.063.215.215,0,0,0-.1-.063.184.184,0,0,1-.095-.062.124.124,0,0,1-.03-.063L9.875,2.6l-.039-.039a.184.184,0,0,0-.066-.036.352.352,0,0,0-.113-.019.763.763,0,0,1-.083,0c-.024,0-.042-.009-.042-.02V2.471a.021.021,0,0,1,.006-.013l.018-.018,0-.012.011-.012h.008l.008-.007h.024a.025.025,0,0,0,.019.024.179.179,0,0,0,.06.007.078.078,0,0,0,.048-.019.278.278,0,0,0,.054-.06A.407.407,0,0,1,9.8,2.3a.407.407,0,0,0,.012-.062l.023-.09.023-.09V2.034c.016-.027.029-.047.036-.062a.031.031,0,0,0,0-.039c0-.016-.012-.029-.03-.042a.443.443,0,0,0-.071-.036c-.027-.012-.059-.031-.09-.048a.209.209,0,0,0-.09-.03l-.09-.039L9.43,1.7a.3.3,0,0,0-.091-.04.313.313,0,0,0-.075-.008H9.227l-.051.039-.051.039a.073.073,0,0,0-.018.054.346.346,0,0,0,.018.095H9.2a.552.552,0,0,1,.095.006c.021,0,.03.01.03.017a.016.016,0,1,1,0,.031.029.029,0,0,1,0,.018.014.014,0,0,1-.011.006H9.3a.136.136,0,0,1-.036.018.14.14,0,0,1-.042.006.129.129,0,0,0-.078.078l-.039.074-.039.074a.076.076,0,0,1-.026.051.1.1,0,0,1-.067.027.712.712,0,0,1-.055.051.1.1,0,0,1-.055.027.039.039,0,0,0,0,.048.064.064,0,0,0,.057.03h.055a.9.9,0,0,0,.119.1.226.226,0,0,0,.107.048.018.018,0,0,1,.018.013.11.11,0,0,1,.006.042.172.172,0,0,1-.048.035.124.124,0,0,1-.054.012H8.742a.055.055,0,0,1-.023-.016A.055.055,0,0,0,8.7,2.659L8.68,2.651l-.016-.008V2.51L8.68,2.5,8.7,2.487a.269.269,0,0,0,0-.051.232.232,0,0,0-.027-.074l-.023.023-.023.023-.027.016-.027.016a.041.041,0,0,0-.047.047.1.1,0,0,1,.012.06c0,.013-.016.019-.035.019H8.414a.085.085,0,0,0-.062.027.451.451,0,0,0-.039.051.1.1,0,0,1-.042.074.32.32,0,0,1-.083.051.261.261,0,0,0-.1.051.2.2,0,0,0-.055.074.078.078,0,0,1,0,.024l-.011.03-.007.012v.012a.272.272,0,0,1-.016.066.522.522,0,0,1-.039.09.171.171,0,0,1-.037.055.068.068,0,0,1-.044.022l-.011,0L7.852,3.2l-.008.008-.008.008a.023.023,0,0,0-.007.014v.025a.085.085,0,0,1,.039.015A.6.6,0,0,0,7.93,3.3h.055a.714.714,0,0,1,.071.078.133.133,0,0,1,.03.078c.012.012.029.031.048.048a.1.1,0,0,0,.054.03h.148a.449.449,0,0,1,.11.012.15.15,0,0,1,.069.035c.027.027.053.053.074.078a.316.316,0,0,1,.051.078.088.088,0,0,0,.051.043.226.226,0,0,0,.082.014l.037,0a.2.2,0,0,0,.034-.008H8.9a.3.3,0,0,1,.1.107.662.662,0,0,1,.051.119.244.244,0,0,0,.03.113.292.292,0,0,0,.048.066.717.717,0,0,0,.074.024.1.1,0,0,1,.051.03c.012,0,.025-.018.036-.046a.321.321,0,0,0,.019-.11.5.5,0,0,1,.019-.142.127.127,0,0,1,.06-.084.219.219,0,0,0,.071-.069.167.167,0,0,0,.03-.087.444.444,0,0,0,.029-.086.144.144,0,0,0-.006-.086.206.206,0,0,0-.019-.1A.064.064,0,0,0,9.43,3.4a.073.073,0,0,1-.048-.03.148.148,0,0,1-.03-.095.1.1,0,0,1,0-.071.041.041,0,0,1,.036-.03c.016,0,.027-.014.035-.04a.436.436,0,0,0,.012-.116.36.36,0,0,1,.016-.1.14.14,0,0,1,.039-.068.1.1,0,0,0,.039-.016.133.133,0,0,1,.063-.016.044.044,0,0,1,.035.013.062.062,0,0,1,.012.042c0,.012.018.025.046.036a.321.321,0,0,0,.11.019h.047a.121.121,0,0,1,.074.026.169.169,0,0,1,.051.067h.031a.209.209,0,0,1,.1.03c.028.017.048.036.048.048.012.027.025.059.036.09a.289.289,0,0,1,.019.09.291.291,0,0,0,0,.048c0,.017.009.03.02.03a.185.185,0,0,1,.032.005.2.2,0,0,0,.038.005l.018,0a.033.033,0,0,0,.014-.008.111.111,0,0,0,.039-.012.111.111,0,0,1,.039-.012.184.184,0,0,1,.015-.058c.009-.024.021-.056.032-.1h.2c.012,0,.025.02.039.052a.809.809,0,0,1,.039.128l.074.141.074.141a.955.955,0,0,1,.1.129,1.324,1.324,0,0,1,.1.176h.234a.189.189,0,0,1,.041.107.215.215,0,0,1-.018.1l-.063.086-.063.086a.47.47,0,0,1-.09.071.186.186,0,0,1-.09.03c-.043,0-.092,0-.141,0a.545.545,0,0,0-.141.027.7.7,0,0,0-.143.015.2.2,0,0,0-.084.032.179.179,0,0,0-.051.016.179.179,0,0,1-.051.016c-.012,0-.023.01-.032.026a.147.147,0,0,0-.015.067.07.07,0,0,0,.015.047.051.051,0,0,0,.04.017l.019,0,.021-.007a.106.106,0,0,0,.06-.013.047.047,0,0,0,.019-.042h.078a.127.127,0,0,1,.071.019.068.068,0,0,1,.03.06v.055a.106.106,0,0,0,.051.056.165.165,0,0,0,.074.015.106.106,0,0,1,.06.013.047.047,0,0,1,.019.042.023.023,0,0,0,0,.036.124.124,0,0,0,.08.019.054.054,0,0,1,.053.026c.006.015,0,.032-.029.044a.255.255,0,0,1-.051.075.328.328,0,0,1-.074.058.521.521,0,0,1-.042.032.109.109,0,0,1-.06.015h-.133a.147.147,0,0,1-.067-.015c-.017-.009-.026-.021-.026-.032l-.039-.066L10.5,5c-.011-.008-.02-.017-.03-.023a.057.057,0,0,0-.032-.01l-.018,0-.022.007.012.012L10.422,5l.012.012.012.012v.2h.024l.016.016.016.016a.134.134,0,0,1,.025.035.261.261,0,0,1,.014.035l.007.019v.013a.03.03,0,0,0-.023.012.03.03,0,0,1-.023.012h-.1a.068.068,0,0,1-.036-.012.242.242,0,0,1-.042-.035.047.047,0,0,0-.055-.055.058.058,0,0,0-.026-.013.153.153,0,0,0-.073,0,.058.058,0,0,0-.026.013v.055a.226.226,0,0,1-.051.071.1.1,0,0,1-.051.03.144.144,0,0,1-.062.023.143.143,0,0,0-.062.023c-.012,0-.025.018-.036.042a.219.219,0,0,0-.019.083.287.287,0,0,1-.03.125.161.161,0,0,1-.071.078.31.31,0,0,0-.067.1.133.133,0,0,0,0,.107.368.368,0,0,1-.019.122c-.013.034-.032.058-.06.058a.3.3,0,0,0-.087.066.484.484,0,0,0-.069.09c-.012.035-.023.078-.035.116a.341.341,0,0,1-.035.087.258.258,0,0,0-.027.1c0,.039,0,.082,0,.125a1.181,1.181,0,0,0,0,.122c0,.034.012.058.027.058a.286.286,0,0,0,.012.051.391.391,0,0,1,.012.1.073.073,0,0,1-.03.06.088.088,0,0,1-.048.019l-.007,0h-.01a.3.3,0,0,1-.106-.037,1.726,1.726,0,0,1-.159-.093v-.1a.611.611,0,0,0-.012-.113.606.606,0,0,1-.012-.066.092.092,0,0,1-.036-.012.1.1,0,0,0-.042-.012.233.233,0,0,1-.065-.013.937.937,0,0,1-.106-.042L8.728,6.7l-.038,0a.11.11,0,0,0-.055.011.035.035,0,0,0-.019.031.038.038,0,0,1-.019.035.116.116,0,0,1-.06.012.115.115,0,0,1-.028.007l-.036,0a.673.673,0,0,1-.105-.01c-.038-.006-.076-.014-.112-.023H8.17a.209.209,0,0,1-.053-.007l-.031-.008-.031-.008-.009-.011-.007,0s-.008.006-.013.016-.01.026-.018.045a.242.242,0,0,1-.042.035.068.068,0,0,1-.036.012.207.207,0,0,0-.06.063.427.427,0,0,0-.042.093c-.012.051-.023.1-.032.143a.621.621,0,0,0-.015.084V7.37a.55.55,0,0,0-.023.154.135.135,0,0,0,.023.1v.025a.023.023,0,0,0,.007.014l.008.008.008.008s.01.006.018.019a.48.48,0,0,1,.029.06A.115.115,0,0,0,7.87,7.8a.581.581,0,0,0,.036.054.092.092,0,0,1,.036.012.1.1,0,0,0,.042.012.084.084,0,0,1,.035.012.084.084,0,0,0,.035.012.046.046,0,0,0,.055.055h.125a.219.219,0,0,0,.071-.03c.028-.017.054-.036.054-.048a.05.05,0,0,1,0-.047.091.091,0,0,1,.007-.042.025.025,0,0,1,.024-.013c0-.012.012-.025.026-.039s.032-.027.044-.039.033-.031.069-.051A.577.577,0,0,0,8.617,7.6h.024a.187.187,0,0,1,.039-.031.068.068,0,0,1,.032-.01.027.027,0,0,1,.022.01.05.05,0,0,1,.008.031v.055l.016.023.016.023a1.373,1.373,0,0,0-.012.273c0,.072.012.121.012.133l.012.008L8.8,8.12a.03.03,0,0,0,.018.007h.029v.1c-.012.129-.018.25-.018.346a.662.662,0,0,0,.018.193.043.043,0,0,0,.015.022s.009.006.009.01v.016a.074.074,0,0,1-.029.018.13.13,0,0,1-.041.006.344.344,0,0,1-.09-.015.755.755,0,0,1-.09-.032V8.768a.255.255,0,0,1-.087-.046c-.036-.026-.069-.06-.069-.087V8.463A.174.174,0,0,0,8.4,8.392a.161.161,0,0,0-.086-.03A.538.538,0,0,1,8.2,8.343a.819.819,0,0,1-.113-.036V8.284l-.078-.062L7.93,8.159a.406.406,0,0,0-.1-.039A.522.522,0,0,0,7.7,8.1H7.445a.511.511,0,0,1-.071,0c-.019,0-.03-.009-.03-.021a.022.022,0,0,1-.006-.016.022.022,0,0,1,.006-.016.037.037,0,0,1,.007-.018A.175.175,0,0,1,7.375,8V7.924L7.3,7.862,7.219,7.8a.135.135,0,0,1-.06-.051A.1.1,0,0,1,7.141,7.7a.219.219,0,0,1,0-.048c0-.017.012-.03.027-.03V7.608L7.18,7.6l.011-.029,0-.018-.012-.016-.012-.016V7.495c-.059-.09-.111-.178-.149-.247a.532.532,0,0,1-.062-.136c-.012,0-.023-.012-.039-.027a.292.292,0,0,0-.062-.051c-.027-.027-.053-.051-.071-.071a.092.092,0,0,1-.03-.054c-.012,0-.029-.018-.048-.042a.8.8,0,0,1-.054-.083v.328l.016.016.016.016V7.37a.029.029,0,0,1,0,.018.014.014,0,0,1-.011.006H6.638a.023.023,0,0,1-.013-.007l-.008-.008L6.609,7.37a.574.574,0,0,0-.052-.121C6.525,7.184,6.48,7.1,6.43,7.01s-.147-.244-.261-.416-.247-.365-.372-.545L5.746,6.01,5.7,5.971a1.076,1.076,0,0,1-.157-.527,1.76,1.76,0,0,1,0-.644.671.671,0,0,0,.07-.2c0-.028-.02-.028-.047-.028H5.391a.109.109,0,0,1-.125-.125.207.207,0,0,0-.034-.113.179.179,0,0,0-.075-.066A.257.257,0,0,1,5.07,4.19c-.029-.037-.059-.082-.086-.125A.748.748,0,0,0,4.9,3.9c-.034-.055-.071-.105-.1-.141a.969.969,0,0,1-.113-.141c-.033-.049-.062-.1-.09-.141a.093.093,0,0,0-.033-.04.082.082,0,0,0-.045-.015.049.049,0,0,0-.047.031.1.1,0,0,1-.016.022.021.021,0,0,1-.014.007c-.007,0-.014-.007-.018-.022A.232.232,0,0,1,4.422,3.4.256.256,0,0,0,4.4,3.3a.068.068,0,0,0-.06-.048H4.219A.359.359,0,0,1,4.1,3.216a.992.992,0,0,1-.158-.089.714.714,0,0,0-.2-.11.653.653,0,0,0-.2-.046H3.142a7.072,7.072,0,0,1,.839-.693A6.945,6.945,0,0,1,4.9,1.729l0,.011ZM2.764,3.365a.225.225,0,0,1,.057.045.077.077,0,0,1,.023.046.037.037,0,0,1-.024.035.19.19,0,0,1-.077.012.057.057,0,0,1-.028-.012.331.331,0,0,1-.035-.029l.042-.049ZM9.279,14.894a.14.14,0,0,1,.01-.032.079.079,0,0,1,.016-.023c.012-.027.023-.053.032-.08a.292.292,0,0,0,.015-.092V14.51a.115.115,0,0,1,.007-.042.1.1,0,0,1,.025-.036.037.037,0,0,0,.035-.024.19.19,0,0,0,.012-.077v-.047a.62.62,0,0,0-.006-.1c0-.022-.01-.034-.018-.034a.244.244,0,0,1-.024-.106c-.007-.057-.015-.133-.03-.223a1.317,1.317,0,0,1,.094-.355c.051-.139.109-.277.141-.355s.047-.27.074-.486.055-.471.074-.709l-.051-.164-.051-.164-.051-.152-.051-.152a1.837,1.837,0,0,1-.152-.177A1.1,1.1,0,0,1,9.25,10.9c-.035-.074-.072-.162-.1-.251a1.858,1.858,0,0,1-.075-.257H9a.089.089,0,0,1-.071-.046.2.2,0,0,1-.03-.11.406.406,0,0,1,.012-.106.144.144,0,0,1,.035-.065V9.987c-.012,0-.023-.012-.032-.03A.171.171,0,0,1,8.9,9.885a.1.1,0,0,1,.03-.074.2.2,0,0,1,.095-.051.287.287,0,0,0,.095-.093.211.211,0,0,0,.03-.11c0-.043,0-.1,0-.162a.791.791,0,0,1,.027-.174v-.07A.342.342,0,0,0,9.146,9,.191.191,0,0,0,9,8.893l-.078-.012L8.844,8.87a.408.408,0,0,1,.1-.071.236.236,0,0,1,.107-.03,1.207,1.207,0,0,0,.141-.012A1.173,1.173,0,0,1,9.3,8.745a.322.322,0,0,0,.1-.055.307.307,0,0,0,.051-.055c0-.012.018-.029.046-.047a.432.432,0,0,1,.11-.047A.61.61,0,0,1,9.737,8.5a.6.6,0,0,1,.122-.013.25.25,0,0,1,.1.03.4.4,0,0,1,.1.071.286.286,0,0,0,.139.06.992.992,0,0,0,.2.019.836.836,0,0,1,.206.03.672.672,0,0,1,.177.071,1.144,1.144,0,0,1,.1.09.322.322,0,0,1,.068.09.154.154,0,0,0,.03.092.173.173,0,0,0,.071.057.537.537,0,0,1,.1.03c.045.017.1.036.131.048a.628.628,0,0,1,.164.057.357.357,0,0,1,.117.092.207.207,0,0,1,.083.123.585.585,0,0,1,.019.158,1.854,1.854,0,0,0,.007.194.39.39,0,0,0,.048.165l.023-.051.023-.051.027-.039.027-.039a.948.948,0,0,1,.19.019.287.287,0,0,1,.138.06.4.4,0,0,0,.123.074.993.993,0,0,0,.158.051.267.267,0,0,1,.179.082.509.509,0,0,1,.126.2h.078a.35.35,0,0,0,.076-.017.37.37,0,0,1,.1-.017.117.117,0,0,1,.081.028.18.18,0,0,1,.051.108l.012.1.012.1a.541.541,0,0,0-.117.084,1.388,1.388,0,0,0-.141.143.58.58,0,0,0-.089.174.624.624,0,0,0-.036.186.324.324,0,0,1-.03.142.152.152,0,0,1-.095.084.1.1,0,0,0-.1.1.209.209,0,0,1-.03.09c-.017.031-.036.063-.048.09a.66.66,0,0,0-.032.1.478.478,0,0,0-.015.1.118.118,0,0,1-.052.092.329.329,0,0,1-.128.057.443.443,0,0,0-.174.058,1.036,1.036,0,0,0-.186.122.577.577,0,0,0-.163.191.746.746,0,0,0-.087.238c-.027.09-.053.174-.078.238s-.051.109-.078.121l-.09.09-.09.09a1.035,1.035,0,0,1-.119.1.423.423,0,0,1-.131.068.283.283,0,0,0-.11.069.159.159,0,0,0-.046.11.259.259,0,0,1-.03.134.152.152,0,0,1-.095.069l-.1.051-.1.051a.52.52,0,0,1-.086.071.166.166,0,0,1-.086.03c-.027.012-.061.025-.087.039s-.046.027-.046.039a.082.082,0,0,0,0,.1.282.282,0,0,0,.012.074.253.253,0,0,1,.012.051.11.11,0,0,1-.006.042.018.018,0,0,1-.018.013c-.012,0-.023.012-.036.026a.294.294,0,0,1-.042.044.181.181,0,0,0-.03.114,1.858,1.858,0,0,0,.009.209q-.212.068-.428.122T9.279,14.894Z"/></svg>