<svg id="Layer_1" data-name="Layer 1" xmlns="http://www.w3.org/2000/svg" viewBox="0 0 16 16"><defs><style>.cls-1{fill:#fff;}.cls-2{fill:#ccc;}.cls-3{fill:#262626;opacity:0.75;}</style></defs><title>GeoAnalytics</title><path class="cls-1" d="M11.545,9h-.09A4.455,4.455,0,0,1,7,4.545v-.09q0-.11.005-.219t.016-.217Q6.908,4.01,6.794,4T6.565,4h-.13A5.425,5.425,0,0,0,1,9.435v.13A5.425,5.425,0,0,0,6.435,15h.13A5.425,5.425,0,0,0,12,9.565v-.13q0-.115,0-.229t-.014-.227q-.108.01-.217.016T11.545,9Z"/><path class="cls-2" d="M11.545.95h-.09a3.509,3.509,0,0,0-3.505,3.5v.09A3.509,3.509,0,0,0,11.455,8.05h.09a3.509,3.509,0,0,0,3.5-3.505v-.09a3.509,3.509,0,0,0-3.5-3.5Z"/><path class="cls-3" d="M11.545,0h-.09A4.457,4.457,0,0,0,7.231,3.034q-.164-.017-.331-.026T6.565,3h-.13A6.435,6.435,0,0,0,0,9.435v.13A6.435,6.435,0,0,0,6.435,16h.13A6.435,6.435,0,0,0,13,9.565v-.13q0-.169-.009-.335t-.026-.331A4.457,4.457,0,0,0,16,4.545v-.09A4.455,4.455,0,0,0,11.545,0ZM12,9.565A5.425,5.425,0,0,1,6.565,15h-.13A5.425,5.425,0,0,1,1,9.565v-.13A5.425,5.425,0,0,1,6.435,4h.13q.115,0,.229,0t.227.014q-.01.108-.016.217T7,4.455v.09A4.455,4.455,0,0,0,11.455,9h.09q.11,0,.219-.005t.217-.016q.009.113.014.227t0,.229v.13Zm3.05-5.02a3.509,3.509,0,0,1-3.5,3.505h-.09A3.509,3.509,0,0,1,7.95,4.545v-.09A3.509,3.509,0,0,1,11.455.95h.09a3.509,3.509,0,0,1,3.5,3.5v.09Z"/></svg>