<svg id="Layer_1" data-name="Layer 1" xmlns="http://www.w3.org/2000/svg" viewBox="0 0 14.996 14.996"><defs><style>.cls-1{fill:#fff;}.cls-2{fill:#262626;opacity:0.75;}.cls-3{fill:#ccc;}</style></defs><title>GeoAnalytics</title><path class="cls-1" d="M7,7.2V2h-.06A5.938,5.938,0,0,0,1,7.938v.12A5.938,5.938,0,0,0,6.938,14h.12A5.938,5.938,0,0,0,13,8.058V8h-5.2A.8.8,0,0,1,7,7.2Z"/><path class="cls-2" d="M8,7V1H6.938A6.926,6.926,0,0,0,0,7.938v.12A6.926,6.926,0,0,0,6.938,15h.12A6.926,6.926,0,0,0,14,8.058V7H8Zm5,1.06A5.938,5.938,0,0,1,7.058,14h-.12A5.938,5.938,0,0,1,1,8.058v-.12A5.938,5.938,0,0,1,6.938,2H7V7.2a.8.8,0,0,0,.8.8H13v.06Z"/><path class="cls-3" d="M9.947,1.034V5.049h4.014A5.033,5.033,0,0,0,9.947,1.034Z"/><path class="cls-2" d="M9.027,0h0A.03.03,0,0,0,9,.03V5.262A.736.736,0,0,0,9.734,6h5.232a.03.03,0,0,0,.03-.03h0A5.968,5.968,0,0,0,9.027,0Zm.92,5.049V1.034a5.033,5.033,0,0,1,4.014,4.014H9.947Z"/></svg>