<svg id="Layer_1" data-name="Layer 1" xmlns="http://www.w3.org/2000/svg" viewBox="0 0 16 16"><defs><style>.cls-1{fill:#ccc;}.cls-2{fill:#262626;opacity:0.75;}.cls-3{fill:#fff;}</style></defs><title>GeoAnalytics</title><polygon class="cls-1" points="2 14 3 14 4 14 4 9.5 4 5 3 5 2 5 2 9.5 2 14"/><path class="cls-2" d="M4.413,4H1.587A.587.587,0,0,0,1,4.587v9.826A.587.587,0,0,0,1.587,15H4.413A.587.587,0,0,0,5,14.413V4.587A.587.587,0,0,0,4.413,4ZM4,14H2V5H4v9Z"/><polygon class="cls-3" points="7 14 8 14 9 14 9 11 9 8 8 8 7 8 7 11 7 14"/><path class="cls-2" d="M9.413,7H6.587A.587.587,0,0,0,6,7.587v6.826A.587.587,0,0,0,6.587,15H9.413A.587.587,0,0,0,10,14.413V7.587A.587.587,0,0,0,9.413,7ZM9,14H7V8H9v6Z"/><polygon class="cls-1" points="12 14 13 14 14 14 14 8 14 2 13 2 12 2 12 8 12 14"/><path class="cls-2" d="M14.413,1H11.587A.587.587,0,0,0,11,1.587V14.413a.587.587,0,0,0,.587.587h2.826A.587.587,0,0,0,15,14.413V1.587A.587.587,0,0,0,14.413,1ZM14,14H12V2h2V14Z"/></svg>