<svg id="Layer_1" data-name="Layer 1" xmlns="http://www.w3.org/2000/svg" viewBox="0 0 16 16"><defs><style>.cls-1{fill:#fff;}.cls-2{fill:#262626;opacity:0.75;}.cls-3{fill:#ccc;}.cls-4{fill:#595a5a;}</style></defs><title>GeoAnalytics</title><path class="cls-1" d="M8.523,1.194a.739.739,0,0,0-1.046,0L4.336,4.336,1.195,7.477a.739.739,0,0,0,0,1.046l3.142,3.142,3.142,3.142a.739.739,0,0,0,1.046,0l3.142-3.142,3.142-3.142a.739.739,0,0,0,0-1.046L11.665,4.336ZM13.3,8.481l-2.41,2.41L8.481,13.3a.679.679,0,0,1-.961,0L5.11,10.89,2.7,8.481a.68.68,0,0,1,0-.961L5.11,5.11,7.52,2.7a.679.679,0,0,1,.961,0l2.41,2.41,2.41,2.41a.68.68,0,0,1,0,.961Z"/><path class="cls-2" d="M15.5,6.786,12.356,3.644,9.215.5A1.714,1.714,0,0,0,6.786.5L3.645,3.644.5,6.786a1.714,1.714,0,0,0,0,2.429l3.142,3.142L6.786,15.5a1.714,1.714,0,0,0,2.429,0l3.142-3.142L15.5,9.214a1.719,1.719,0,0,0,0-2.429Zm-.692,1.737-3.142,3.142L8.523,14.806a.739.739,0,0,1-1.046,0L4.336,11.664,1.195,8.523a.739.739,0,0,1,0-1.046L4.336,4.336,7.478,1.194a.739.739,0,0,1,1.046,0l3.142,3.142,3.142,3.142a.739.739,0,0,1,0,1.046Z"/><path class="cls-3" d="M3.6,8l2.2,2.2L8,12.4l2.2-2.2L12.4,8,10.2,5.8,8,3.6,5.8,5.8Zm6.929-.327a.463.463,0,0,1,0,.655l-1.1,1.1-1.1,1.1a.462.462,0,0,1-.655,0l-1.1-1.1-1.1-1.1a.463.463,0,0,1,0-.655l1.1-1.1,1.1-1.1a.462.462,0,0,1,.655,0l1.1,1.1Z"/><path class="cls-4" d="M8.481,2.7a.679.679,0,0,0-.961,0L5.11,5.11,2.7,7.519a.68.68,0,0,0,0,.961l2.41,2.41L7.52,13.3a.679.679,0,0,0,.961,0l2.41-2.41,2.41-2.41a.68.68,0,0,0,0-.961l-2.41-2.41ZM12.4,8l-2.2,2.2L8,12.4,5.8,10.2,3.6,8,5.8,5.8,8,3.6l2.2,2.2Z"/><polygon class="cls-1" points="8 6.524 7.262 7.262 6.524 8 7.262 8.738 8 9.476 8.738 8.738 9.476 8 8.738 7.262 8 6.524"/><path class="cls-4" d="M7.673,5.468l-1.1,1.1-1.1,1.1a.463.463,0,0,0,0,.655l1.1,1.1,1.1,1.1a.462.462,0,0,0,.655,0l1.1-1.1,1.1-1.1a.463.463,0,0,0,0-.655l-1.1-1.1-1.1-1.1a.462.462,0,0,0-.655,0ZM6.524,8l.738-.738L8,6.524l.738.738L9.476,8l-.738.738L8,9.476l-.738-.738Z"/></svg>