<svg id="Layer_1" data-name="Layer 1" xmlns="http://www.w3.org/2000/svg" viewBox="0 0 16 16"><defs><style>.cls-1{fill:#fff;}.cls-2{fill:#262626;opacity:0.75;}</style></defs><title>GeoAnalytics</title><path class="cls-1" d="M11.481,6A1.483,1.483,0,0,1,10,4.523V4.485A1.483,1.483,0,0,1,11.481,3h.038A1.483,1.483,0,0,1,13,4.485v.037A1.483,1.483,0,0,1,11.519,6h-.038Z"/><path class="cls-1" d="M2.481,4A1.483,1.483,0,0,1,1,2.523V2.485A1.483,1.483,0,0,1,2.481,1h.037A1.483,1.483,0,0,1,4,2.485v.037A1.483,1.483,0,0,1,2.519,4H2.481Z"/><path class="cls-1" d="M13.481,15A1.483,1.483,0,0,1,12,13.523v-.037A1.483,1.483,0,0,1,13.481,12h.038A1.483,1.483,0,0,1,15,13.485v.037A1.483,1.483,0,0,1,13.519,15h-.038Z"/><path class="cls-2" d="M13.525,11h-.05a2.475,2.475,0,0,0-2.429,2H3.707l3.2-3.2,3.2-3.2A2.463,2.463,0,0,0,11.475,7h.05A2.475,2.475,0,0,0,14,4.529v-.05A2.475,2.475,0,0,0,11.525,2h-.05A2.475,2.475,0,0,0,9,4.479v.05a2.463,2.463,0,0,0,.408,1.36l-3.2,3.2L3,12.3V4.958A2.475,2.475,0,0,0,5,2.529v-.05A2.475,2.475,0,0,0,2.525,0h-.05A2.475,2.475,0,0,0,0,2.479v.05A2.475,2.475,0,0,0,2,4.958V13.5H2v.024l0,.024v.011l0,.011,0,.013,0,.013,0,.012,0,.012,0,.011,0,.011,0,.012,0,.012,0,.011,0,.011,0,.011,0,.01.005.012.006.012.005.01.006.009.007.012.007.011.007.01L2.1,13.8l.007.01.008.01.013.015.013.014,0,0,0,0,0,0,0,0,.014.013.015.013.01.008.01.007.01.007.01.007.011.007.012.007.009.006.01.005.012.006.012.006.01,0,.01,0,.012,0,.012,0,.011,0,.012,0,.012,0,.012,0,.012,0,.012,0,.014,0,.014,0,.01,0h.01l.025,0h8.571a2.475,2.475,0,0,0,2.429,2h.05A2.475,2.475,0,0,0,16,13.529v-.05A2.475,2.475,0,0,0,13.525,11ZM10,4.479A1.477,1.477,0,0,1,11.475,3h.05A1.477,1.477,0,0,1,13,4.479v.05A1.477,1.477,0,0,1,11.525,6h-.05A1.477,1.477,0,0,1,10,4.529v-.05ZM1,2.529v-.05A1.477,1.477,0,0,1,2.475,1h.05A1.477,1.477,0,0,1,4,2.479v.05A1.477,1.477,0,0,1,2.525,4h-.05A1.477,1.477,0,0,1,1,2.529Zm14,11A1.477,1.477,0,0,1,13.525,15h-.05A1.477,1.477,0,0,1,12,13.529v-.05A1.477,1.477,0,0,1,13.475,12h.05A1.477,1.477,0,0,1,15,13.479v.05Z"/></svg>