<svg id="Layer_1" data-name="Layer 1" xmlns="http://www.w3.org/2000/svg" viewBox="0 0 16 16"><defs><style>.cls-1{fill:#ccc;}.cls-2{fill:#fff;}.cls-3{fill:#262626;opacity:0.75;}</style></defs><title>GeoAnalytics</title><path class="cls-1" d="M13.065,6.817,10.75,4.878,8.435,2.939a1.5,1.5,0,0,1-.862,0L5.255,4.881,2.936,6.823A1.5,1.5,0,0,1,2.663,8.2l.7,2.454.7,2.454a1.5,1.5,0,0,1,.814.775h6.264a1.5,1.5,0,0,1,.659-.7l.766-2.495.766-2.495a1.5,1.5,0,0,1-.263-1.367Z"/><path class="cls-2" d="M8,2a.5.5,0,1,0-.353-.147A.5.5,0,0,0,8,2Z"/><path class="cls-2" d="M14.5,6.751a.5.5,0,1,0,.353.147A.5.5,0,0,0,14.5,6.751Z"/><path class="cls-2" d="M12,14.5a.5.5,0,1,0,.147-.353A.5.5,0,0,0,12,14.5Z"/><path class="cls-2" d="M3.507,14a.5.5,0,1,0,.353.147A.5.5,0,0,0,3.507,14Z"/><path class="cls-2" d="M1.5,6.751a.5.5,0,1,0,.353.147A.5.5,0,0,0,1.5,6.751Z"/><path class="cls-3" d="M14.5,5.751a1.492,1.492,0,0,0-.885.289L11.423,4.2,9.23,2.366a1.5,1.5,0,1,0-2.451,0L4.583,4.2l-2.2,1.839a1.5,1.5,0,1,0-.725,2.7,1.518,1.518,0,0,0,.159-.026l.619,2.175.619,2.175a1.5,1.5,0,1,0,1.908,1.763H11.04a1.5,1.5,0,1,0,1.792-1.793l.664-2.162L14.16,8.71a1.52,1.52,0,0,0,.167.029A1.5,1.5,0,1,0,14.5,5.751Zm-13,2A.5.5,0,1,1,1.852,7.6.5.5,0,0,1,1.5,7.75ZM8,1a.5.5,0,1,1-.353.147A.5.5,0,0,1,8,1ZM3.507,15a.5.5,0,1,1,.353-.147A.5.5,0,0,1,3.507,15Zm9.5-.5a.5.5,0,1,1-.147-.353A.5.5,0,0,1,13,14.5ZM11.8,13.174a1.5,1.5,0,0,0-.659.7H4.872a1.5,1.5,0,0,0-.814-.775l-.7-2.454L2.663,8.2a1.5,1.5,0,0,0,.274-1.373L5.255,4.881,7.573,2.939a1.5,1.5,0,0,0,.862,0L10.75,4.878l2.315,1.939a1.5,1.5,0,0,0,.263,1.367l-.766,2.495ZM14.5,7.75a.5.5,0,1,1,.353-.147A.5.5,0,0,1,14.5,7.75Z"/></svg>