<svg id="Layer_1" data-name="Layer 1" xmlns="http://www.w3.org/2000/svg" viewBox="0 0 15.012 16"><defs><style>.cls-1{fill:#fff;}.cls-2{fill:#262626;opacity:0.75;}.cls-3{fill:#ccc;}</style></defs><title>GeoAnalytics</title><path class="cls-1" d="M7.6.945H7.464A10.576,10.576,0,0,0,2.852,1.9c-1.18.59-1.91,1.405-1.91,2.306v.066c0,.9.73,1.716,1.91,2.306a10.576,10.576,0,0,0,4.612.955H7.6a10.576,10.576,0,0,0,4.612-.955c1.18-.59,1.91-1.405,1.91-2.306V4.207c0-.9-.73-1.716-1.91-2.306A10.576,10.576,0,0,0,7.6.945Z"/><path class="cls-2" d="M15.059,4.272V4.207a2.659,2.659,0,0,0-.187-.973,3.227,3.227,0,0,0-.548-.9,4.459,4.459,0,0,0-.734-.684,6.294,6.294,0,0,0-.961-.587A9.628,9.628,0,0,0,10.309.276,13.3,13.3,0,0,0,7.6,0H7.464A13.3,13.3,0,0,0,4.75.276a9.628,9.628,0,0,0-2.319.782,6.294,6.294,0,0,0-.961.587,4.459,4.459,0,0,0-.734.684,3.227,3.227,0,0,0-.548.9A2.659,2.659,0,0,0,0,4.207v.066a2.659,2.659,0,0,0,.187.973,3.227,3.227,0,0,0,.548.9l0,0,0,0a3.127,3.127,0,0,0-.518.87,2.615,2.615,0,0,0-.177.944v.066a2.616,2.616,0,0,0,.177.945,3.126,3.126,0,0,0,.518.87l0,0,0,0a3.227,3.227,0,0,0-.548.9A2.659,2.659,0,0,0,0,11.736V11.8a2.659,2.659,0,0,0,.187.973,3.227,3.227,0,0,0,.548.9,4.459,4.459,0,0,0,.734.684,6.294,6.294,0,0,0,.961.587,9.628,9.628,0,0,0,2.319.782A13.3,13.3,0,0,0,7.464,16H7.6a13.3,13.3,0,0,0,2.713-.272,9.628,9.628,0,0,0,2.319-.782,6.294,6.294,0,0,0,.961-.587,4.459,4.459,0,0,0,.734-.684,3.227,3.227,0,0,0,.548-.9,2.659,2.659,0,0,0,.187-.973v-.066a2.659,2.659,0,0,0-.187-.973,3.227,3.227,0,0,0-.548-.9l0,0,0,0a3.126,3.126,0,0,0,.518-.87,2.616,2.616,0,0,0,.177-.945V7.971a2.615,2.615,0,0,0-.177-.944,3.127,3.127,0,0,0-.518-.87l0,0,0,0a3.227,3.227,0,0,0,.548-.9A2.659,2.659,0,0,0,15.059,4.272ZM.941,4.207c0-.9.73-1.716,1.91-2.306A10.576,10.576,0,0,1,7.464.945H7.6a10.576,10.576,0,0,1,4.612.955c1.18.59,1.91,1.405,1.91,2.306v.066a1.718,1.718,0,0,1-.125.637,2.266,2.266,0,0,1-.357.6,3.13,3.13,0,0,1-.3.319,4,4,0,0,1-.366.3h0a7.056,7.056,0,0,1-2.292,1.026A11.981,11.981,0,0,1,7.6,7.534H7.464a11.981,11.981,0,0,1-3.081-.386A7.056,7.056,0,0,1,2.091,6.122h0a4,4,0,0,1-.366-.3,3.13,3.13,0,0,1-.3-.319,2.267,2.267,0,0,1-.357-.6,1.718,1.718,0,0,1-.125-.637V4.207ZM13.665,9.233l-.033.041-.034.04-.01.012-.01.011-.026.029-.026.029-.011.012L13.5,9.42l-.027.029-.028.029-.01.011-.01.011-.033.032-.033.032-.007.006-.007.006q-.087.081-.182.159t-.2.153h0a7.056,7.056,0,0,1-2.292,1.026A11.981,11.981,0,0,1,7.6,11.3H7.464a11.981,11.981,0,0,1-3.081-.386A7.056,7.056,0,0,1,2.091,9.887h0q-.1-.075-.2-.153t-.182-.159L1.7,9.569,1.7,9.562,1.664,9.53,1.631,9.5l-.01-.011-.01-.011-.028-.029L1.555,9.42l-.011-.012L1.532,9.4l-.026-.029-.026-.029-.01-.012-.01-.012-.034-.04-.033-.041h0a2.223,2.223,0,0,1-.336-.579,1.716,1.716,0,0,1-.117-.617V7.971a1.711,1.711,0,0,1,.117-.617,2.228,2.228,0,0,1,.336-.578,5.645,5.645,0,0,0,.485.337q.259.161.551.307A9.628,9.628,0,0,0,4.75,8.2a13.3,13.3,0,0,0,2.713.272H7.6A13.3,13.3,0,0,0,10.309,8.2a9.628,9.628,0,0,0,2.319-.782q.292-.146.551-.307a5.646,5.646,0,0,0,.485-.337A2.228,2.228,0,0,1,14,7.354a1.711,1.711,0,0,1,.117.617v.066A1.716,1.716,0,0,1,14,8.655a2.223,2.223,0,0,1-.336.579Zm.453,2.569c0,.9-.73,1.716-1.91,2.306a10.576,10.576,0,0,1-4.612.955H7.464a10.576,10.576,0,0,1-4.612-.955C1.671,13.518.941,12.7.941,11.8v-.066a1.716,1.716,0,0,1,.125-.637,2.268,2.268,0,0,1,.358-.595,5.624,5.624,0,0,0,.481.333q.257.16.548.305a9.581,9.581,0,0,0,2.309.779,13.259,13.259,0,0,0,2.7.271H7.6a13.259,13.259,0,0,0,2.7-.271,9.581,9.581,0,0,0,2.309-.779q.29-.145.548-.305a5.624,5.624,0,0,0,.481-.333,2.268,2.268,0,0,1,.358.595,1.716,1.716,0,0,1,.125.637V11.8Z"/><path class="cls-1" d="M7.464,15.063H7.6a10.576,10.576,0,0,0,4.612-.955c1.18-.59,1.91-1.405,1.91-2.306v-.107l0-.041v-.035l0-.024,0-.024,0-.023,0-.023,0-.018,0-.018,0-.027,0-.027,0-.013,0-.013-.006-.03-.007-.03,0-.009,0-.009-.009-.033-.009-.033,0-.006,0-.006-.011-.036-.012-.035v-.006l-.014-.038-.015-.038h0a2.066,2.066,0,0,0-.151-.3,2.5,2.5,0,0,0-.206-.291,5.624,5.624,0,0,1-.481.333q-.257.16-.548.305a9.581,9.581,0,0,1-2.309.779,13.259,13.259,0,0,1-2.7.271H7.464a13.259,13.259,0,0,1-2.7-.271,9.581,9.581,0,0,1-2.309-.779Q2.161,11,1.9,10.838a5.624,5.624,0,0,1-.481-.333,2.5,2.5,0,0,0-.206.291,2.066,2.066,0,0,0-.151.3h0l-.015.038-.014.038v.006l-.012.035-.011.036,0,.006,0,.006L1,11.3l-.009.033,0,.009,0,.009-.007.03-.006.03,0,.013,0,.013,0,.027,0,.027,0,.018,0,.018,0,.023,0,.023,0,.024,0,.024v.035l0,.041V11.8c0,.9.73,1.716,1.91,2.306A10.576,10.576,0,0,0,7.464,15.063Z"/><path class="cls-3" d="M14.116,7.89V7.859l0-.025,0-.025,0-.02,0-.02,0-.02,0-.02,0-.022,0-.022,0-.017,0-.017-.005-.025L14.076,7.6l0-.014,0-.014-.007-.027-.007-.027,0-.011,0-.011-.009-.029-.009-.029,0-.008,0-.008-.011-.032L14,7.359l0,0,0,0-.014-.035L13.97,7.28h0a2.105,2.105,0,0,0-.133-.256,2.476,2.476,0,0,0-.172-.247,5.646,5.646,0,0,1-.485.337q-.259.161-.551.307a9.628,9.628,0,0,1-2.319.782A13.3,13.3,0,0,1,7.6,8.475H7.464A13.3,13.3,0,0,1,4.75,8.2,9.628,9.628,0,0,1,2.431,7.42q-.292-.146-.551-.307a5.645,5.645,0,0,1-.485-.337,2.476,2.476,0,0,0-.172.247,2.105,2.105,0,0,0-.133.256h0l-.015.035-.014.035,0,0,0,0-.012.032-.011.032,0,.008,0,.008-.009.029L1.01,7.5l0,.011L1,7.52,1,7.547.99,7.574l0,.014,0,.014-.005.025-.005.025,0,.017,0,.017,0,.022,0,.022,0,.02,0,.02,0,.02,0,.02,0,.025,0,.025V7.89l0,.041v.148l0,.041v.027l0,.027,0,.027,0,.016,0,.016,0,.024,0,.024,0,.017,0,.017,0,.023,0,.023,0,.018,0,.017,0,.022.005.022,0,.018,0,.018.006.022.006.022.005.018.006.018.007.021.007.021.006.018.006.018.008.021.008.021.007.018.007.018.009.021.009.021.008.017.008.017.01.021.01.021.009.017.009.017.011.021.012.021.009.017.009.017.013.021.013.021L1.229,9l.01.016.014.022.014.022.01.015.01.015.016.024.017.024.009.013.009.013.024.033.025.032,0,0,0,0,.033.041.034.04h0l.009.011.009.011.026.029.026.029.011.012.011.012.027.029.028.029.006.006.006.006,0,0,0,0,.033.032.033.032.007.006.007.006q.087.081.182.159t.2.153q.138.1.289.194t.317.182h0q.1.053.2.1t.211.1h0l.069.031.07.03.005,0,.005,0q.109.046.223.09t.231.085h.008l.072.025.073.024.011,0,.011,0,.071.023.071.022.008,0,.008,0,.163.049.166.046.008,0,.008,0,.073.019.074.019.017,0,.017,0,.068.016.068.016.017,0,.017,0,.082.019.083.018h0L5,11.058l.089.018.012,0,.012,0,.074.014.074.014.023,0,.023,0,.065.011.065.011.025,0,.025,0,.072.011.073.011.016,0,.016,0,.09.013.091.012.014,0,.014,0,.076.009.076.009.028,0,.028,0,.064.007.064.006.03,0,.03,0,.068.006.068.006.024,0,.024,0,.093.007.093.006h.023l.082,0,.082,0h.061l.065,0,.065,0h.067l.066,0h.765l.066,0h.067l.065,0,.065,0h.061l.082,0,.082,0h.023l.093-.006.093-.007.024,0,.024,0,.068-.006.068-.006.03,0,.03,0,.064-.006.064-.007.028,0,.028,0,.076-.009.076-.009.014,0,.014,0,.091-.012.09-.013.016,0,.016,0,.073-.011.072-.011.025,0,.025,0,.065-.011.065-.011.023,0,.023,0,.074-.014.074-.014.012,0,.012,0,.089-.018.088-.018h0l.083-.018L10.313,11l.017,0,.017,0,.068-.016.068-.016.017,0,.017,0,.074-.019.073-.019.008,0,.008,0,.166-.046.163-.049.008,0,.008,0,.071-.022.071-.023.011,0,.011,0,.073-.024.072-.025h.008q.117-.041.231-.085t.223-.09l.005,0,.005,0,.07-.03.069-.031h0q.108-.048.211-.1t.2-.1h0q.165-.088.317-.182t.289-.194q.1-.075.2-.153t.182-.159l.007-.006.007-.006.033-.032.033-.032,0,0,0,0,.006-.006.006-.006.028-.029L13.5,9.42l.011-.012.011-.012.026-.029.026-.029.01-.011.01-.011h0l.034-.04.033-.041,0,0,0,0,.025-.032.024-.033.009-.013.009-.013.017-.024.016-.024.01-.015.01-.015.014-.022.014-.022L13.83,9l.01-.016.013-.021.013-.021.009-.017.009-.017.012-.021.011-.021.009-.017.009-.017.01-.021.01-.021.008-.017.008-.017.009-.021.009-.021.007-.018.007-.018L14,8.654l.008-.021.006-.018.006-.018.007-.021.007-.021.006-.018.005-.018.006-.022.006-.022,0-.018,0-.018.005-.022,0-.022,0-.017,0-.018,0-.023,0-.023,0-.017,0-.017,0-.024,0-.024,0-.016,0-.016,0-.027,0-.027V8.119l0-.041V7.93Z"/></svg>